<svg width="163" height="101" viewBox="0 0 163 101" fill="none" xmlns="http://www.w3.org/2000/svg">
<g clip-path="url(#clip0_4_72)">
<path d="M98.5841 23.8481H87.7925V77.383H98.5841V23.8481Z" fill="#107F4A"/>
<path d="M77.5055 0H66.7139V77.3907H77.5055V0Z" fill="#107F4A"/>
<path d="M152.208 0V30.4571C147.403 25.5427 140.78 22.5078 133.265 22.5078C117.357 22.5078 105.525 35.0866 105.525 50.6078C105.525 66.1291 117.419 78.7079 133.265 78.7079C140.78 78.7079 147.403 75.673 152.208 70.7585V77.3907H163V0H152.208ZM135.12 68.4708C124.841 68.4708 117.132 60.4752 117.132 50.6078C117.132 40.7405 124.802 32.7449 135.12 32.7449C145.438 32.7449 152.604 40.7405 152.604 50.6078C152.604 60.4752 145.058 68.4708 135.12 68.4708Z" fill="#107F4A"/>
<path d="M45.9769 23.8481V31.0117C41.2799 25.7815 34.5409 22.5078 26.8315 22.5078C11.436 22.5078 0 34.5782 0 49.4678C0 64.3575 11.4981 76.4279 26.8315 76.4279C34.3003 76.4279 40.8606 73.3621 45.5344 68.4092C45.612 69.865 45.612 71.5365 45.612 73.624C45.612 84.7624 38.7644 90.917 29.2771 90.917C19.7898 90.917 14.9064 86.4801 12.9344 80.2408H1.36642C3.86635 92.1417 13.6797 101.008 29.2228 101.008C46.6136 101.008 56.7608 88.5214 56.7608 73.6317V23.8481H45.9692H45.9769ZM29.1762 66.3602C19.2075 66.3602 11.731 58.796 11.731 49.4678C11.731 40.1396 19.1687 32.5754 29.1762 32.5754C39.1837 32.5754 46.1322 40.1396 46.1322 49.4678C46.1322 58.796 38.811 66.3602 29.1762 66.3602Z" fill="#107F4A"/>
</g>
<defs>
<clipPath id="clip0_4_72">
<rect width="163" height="101" fill="white"/>
</clipPath>
</defs>
</svg>
